<?xml version="1.0" encoding="UTF-8"?>
<!DOCTYPE svg PUBLIC "-//W3C//DTD SVG 1.1//EN" "http://www.w3.org/Graphics/SVG/1.1/DTD/svg11.dtd">
<svg xmlns="http://www.w3.org/2000/svg" version="1.1" width="313px" height="313px" style="shape-rendering:geometricPrecision; text-rendering:geometricPrecision; image-rendering:optimizeQuality; fill-rule:evenodd; clip-rule:evenodd" xmlns:xlink="http://www.w3.org/1999/xlink">
<g><path style="opacity:0.96" fill="#fde9ca" d="M 177.5,172.5 C 177.335,169.482 177.502,166.482 178,163.5C 186.096,152.306 193.43,140.639 200,128.5C 206.602,102.958 198.436,83.7917 175.5,71C 167.105,67.7663 158.438,66.7663 149.5,68C 146.827,69.0014 144.493,70.5014 142.5,72.5C 131.011,72.5681 124.345,78.2348 122.5,89.5C 113.616,94.2759 110.449,101.609 113,111.5C 113.557,113.615 114.391,115.615 115.5,117.5C 111.86,126.246 114.193,132.913 122.5,137.5C 122.128,145.605 125.795,150.772 133.5,153C 132.041,156.953 132.874,160.453 136,163.5C 136.339,166.88 136.839,170.213 137.5,173.5C 110.988,165.148 95.8211,147.148 92,119.5C 90.3888,89.2087 102.889,67.042 129.5,53C 166.028,40.8368 194.195,51.0035 214,83.5C 226.134,113.452 220.634,139.619 197.5,162C 191.526,166.82 184.859,170.32 177.5,172.5 Z"/></g>
<g><path style="opacity:0.985" fill="#17479b" d="M 177.5,172.5 C 176.878,173.627 176.045,174.627 175,175.5C 175.5,181.708 173.167,186.375 168,189.5C 166.854,200.357 161.021,203.857 150.5,200C 147.111,197.381 145.611,193.881 146,189.5C 144.045,188.547 142.378,187.213 141,185.5C 140.244,181.281 139.078,177.281 137.5,173.5C 136.839,170.213 136.339,166.88 136,163.5C 132.874,160.453 132.041,156.953 133.5,153C 125.795,150.772 122.128,145.605 122.5,137.5C 114.193,132.913 111.86,126.246 115.5,117.5C 114.391,115.615 113.557,113.615 113,111.5C 110.449,101.609 113.616,94.2759 122.5,89.5C 124.345,78.2348 131.011,72.5681 142.5,72.5C 144.493,70.5014 146.827,69.0014 149.5,68C 158.438,66.7663 167.105,67.7663 175.5,71C 198.436,83.7917 206.602,102.958 200,128.5C 193.43,140.639 186.096,152.306 178,163.5C 177.502,166.482 177.335,169.482 177.5,172.5 Z"/></g>
<g><path style="opacity:1" fill="#b9cae3" d="M 150.5,72.5 C 151.919,71.5489 153.585,71.2155 155.5,71.5C 155.832,82.9162 155.499,93.5829 154.5,103.5C 154.822,97.642 154.489,91.9753 153.5,86.5C 153.5,85.5 153.5,84.5 153.5,83.5C 154.482,80.0381 154.815,76.3714 154.5,72.5C 153.167,72.5 151.833,72.5 150.5,72.5 Z"/></g>
<g><path style="opacity:1" fill="#fbfcfd" d="M 150.5,72.5 C 151.833,72.5 153.167,72.5 154.5,72.5C 154.815,76.3714 154.482,80.0381 153.5,83.5C 151.107,82.79 148.607,82.1233 146,81.5C 144.422,76.8432 145.922,73.8432 150.5,72.5 Z"/></g>
<g><path style="opacity:1" fill="#b5996c" d="M 164.5,72.5 C 163.167,72.5 161.833,72.5 160.5,72.5C 160.5,84.5 160.5,96.5 160.5,108.5C 162.167,108.5 163.833,108.5 165.5,108.5C 163.735,109.461 161.735,109.795 159.5,109.5C 159.5,96.8333 159.5,84.1667 159.5,71.5C 161.415,71.2155 163.081,71.5489 164.5,72.5 Z"/></g>
<g><path style="opacity:1" fill="#fcbc59" d="M 164.5,72.5 C 190.457,79.7291 201.291,96.7291 197,123.5C 195.885,127.729 194.219,131.729 192,135.5C 186.667,143.5 181.333,151.5 176,159.5C 174.301,160.406 172.467,160.739 170.5,160.5C 170.5,144.833 170.5,129.167 170.5,113.5C 178.018,113.113 180.518,109.446 178,102.5C 175.441,99.6508 172.274,98.8175 168.5,100C 166.07,102.305 165.07,105.138 165.5,108.5C 163.833,108.5 162.167,108.5 160.5,108.5C 160.5,96.5 160.5,84.5 160.5,72.5C 161.833,72.5 163.167,72.5 164.5,72.5 Z"/></g>
<g><path style="opacity:1" fill="#f7f9fc" d="M 153.5,86.5 C 154.489,91.9753 154.822,97.642 154.5,103.5C 152.044,102.738 149.544,102.071 147,101.5C 145.338,101.388 144.171,102.054 143.5,103.5C 147.637,105.16 151.471,107.494 155,110.5C 155.825,114.211 155.659,117.878 154.5,121.5C 150.998,119.738 147.332,119.238 143.5,120C 142.167,121.333 142.167,122.667 143.5,124C 147.77,123.797 151.437,124.964 154.5,127.5C 154.5,138.167 154.5,148.833 154.5,159.5C 149.167,159.5 143.833,159.5 138.5,159.5C 137.527,157.932 137.36,156.265 138,154.5C 144.334,151.502 148.5,146.669 150.5,140C 150.237,138.054 149.237,137.388 147.5,138C 145.26,143.075 141.594,146.575 136.5,148.5C 128.816,147.221 126.483,143.221 129.5,136.5C 131.945,135.035 133.945,135.535 135.5,138C 141.312,138.211 141.812,136.711 137,133.5C 136.505,130.469 136.671,127.469 137.5,124.5C 133.108,124.526 131.108,126.859 131.5,131.5C 121.441,134.953 117.274,131.287 119,120.5C 124.919,119.526 130.253,117.193 135,113.5C 138.39,117.796 140.39,117.463 141,112.5C 136.605,109.933 135.438,106.267 137.5,101.5C 135.856,101.286 134.356,101.62 133,102.5C 132.782,105.426 132.282,108.26 131.5,111C 127.486,113.46 123.32,114.626 119,114.5C 114.461,105.704 116.294,98.7037 124.5,93.5C 126.76,95.1768 128.427,97.3434 129.5,100C 130.449,100.617 131.282,100.451 132,99.5C 132.608,95.7108 131.275,92.7108 128,90.5C 127.898,83.4207 131.398,79.0874 138.5,77.5C 139.167,77.8333 139.833,78.1667 140.5,78.5C 142.632,82.46 142.465,86.1266 140,89.5C 139.503,91.8098 139.337,94.1432 139.5,96.5C 140.822,96.67 141.989,96.3366 143,95.5C 143.592,89.0731 147.092,86.0731 153.5,86.5 Z"/></g>
<g><path style="opacity:1" fill="#ebb35f" d="M 170.5,104.5 C 171.833,104.5 173.167,104.5 174.5,104.5C 174.5,105.833 174.5,107.167 174.5,108.5C 172.833,108.5 171.167,108.5 169.5,108.5C 169.433,107.041 169.766,105.708 170.5,104.5 Z"/></g>
<g><path style="opacity:1" fill="#bf9e69" d="M 160.5,113.5 C 160.5,128.833 160.5,144.167 160.5,159.5C 162.167,159.5 163.833,159.5 165.5,159.5C 163.735,160.461 161.735,160.795 159.5,160.5C 159.17,144.658 159.504,128.991 160.5,113.5 Z"/></g>
<g><path style="opacity:1" fill="#febd58" d="M 160.5,113.5 C 162.167,113.5 163.833,113.5 165.5,113.5C 165.5,128.833 165.5,144.167 165.5,159.5C 163.833,159.5 162.167,159.5 160.5,159.5C 160.5,144.167 160.5,128.833 160.5,113.5 Z"/></g>
<g><path style="opacity:1" fill="#b7c9e2" d="M 154.5,127.5 C 155.495,138.321 155.828,149.321 155.5,160.5C 149.642,160.822 143.975,160.489 138.5,159.5C 143.833,159.5 149.167,159.5 154.5,159.5C 154.5,148.833 154.5,138.167 154.5,127.5 Z"/></g>
<g><path style="opacity:1" fill="#b99b6b" d="M 172.5,170.5 C 172.5,168.833 172.5,167.167 172.5,165.5C 162.167,165.5 151.833,165.5 141.5,165.5C 141.5,167.167 141.5,168.833 141.5,170.5C 140.539,168.735 140.205,166.735 140.5,164.5C 151.5,164.5 162.5,164.5 173.5,164.5C 173.795,166.735 173.461,168.735 172.5,170.5 Z"/></g>
<g><path style="opacity:1" fill="#fdbc59" d="M 172.5,170.5 C 172.389,171.117 172.056,171.617 171.5,172C 161.833,172.667 152.167,172.667 142.5,172C 141.944,171.617 141.611,171.117 141.5,170.5C 141.5,168.833 141.5,167.167 141.5,165.5C 151.833,165.5 162.167,165.5 172.5,165.5C 172.5,167.167 172.5,168.833 172.5,170.5 Z"/></g>
<g><path style="opacity:1" fill="#b9cbe3" d="M 168.5,182.5 C 168.5,180.833 168.5,179.167 168.5,177.5C 160.833,177.5 153.167,177.5 145.5,177.5C 145.5,179.167 145.5,180.833 145.5,182.5C 144.539,180.735 144.205,178.735 144.5,176.5C 152.833,176.5 161.167,176.5 169.5,176.5C 169.795,178.735 169.461,180.735 168.5,182.5 Z"/></g>
<g><path style="opacity:1" fill="#fcfdfe" d="M 168.5,182.5 C 168.389,183.117 168.056,183.617 167.5,184C 160.5,184.667 153.5,184.667 146.5,184C 145.944,183.617 145.611,183.117 145.5,182.5C 145.5,180.833 145.5,179.167 145.5,177.5C 153.167,177.5 160.833,177.5 168.5,177.5C 168.5,179.167 168.5,180.833 168.5,182.5 Z"/></g>
<g><path style="opacity:1" fill="#f8b95b" d="M 151.5,188.5 C 155.167,188.5 158.833,188.5 162.5,188.5C 162.618,196.618 159.118,198.618 152,194.5C 151.505,192.527 151.338,190.527 151.5,188.5 Z"/></g>
</svg>
